<?xml version="1.0" encoding="UTF-8"?>
<svg width="47px" height="86px" viewBox="0 0 47 86" version="1.1" xmlns="http://www.w3.org/2000/svg" xmlns:xlink="http://www.w3.org/1999/xlink">
    <!-- Generator: Sketch 48.1 (47250) - http://www.bohemiancoding.com/sketch -->
    <title>Combined Shape</title>
    <desc>Created with Sketch.</desc>
    <defs></defs>
    <g id="Homepage---2" stroke="none" stroke-width="1" fill="none" fill-rule="evenodd" transform="translate(-90.000000, -3067.000000)">
        <g id="STONES" transform="translate(90.000000, 2568.000000)" fill="#696969">
            <g id="Group-3" transform="translate(0.000000, 6.000000)">
                <path d="M0,493 L47,493 L47,579 L0,579 L0,493 Z M9.28426032,538.709798 L34.3980308,565.490102 C35.1848323,566.329115 36.5028154,566.371441 37.3418284,565.58464 C37.761664,565.190931 37.9998507,564.641032 37.9998507,564.065472 L37.9998507,560.418911 C37.9998507,559.380552 37.5960691,558.382885 36.8738669,557.63682 L18.6274907,538.787552 C17.1138851,537.223934 17.1280323,534.737146 18.6593298,533.190851 L36.8420278,514.830067 C37.583757,514.081073 37.9998507,513.06957 37.9998507,512.015457 L37.9998507,508.138598 C37.9998507,506.932275 37.0219327,505.954357 35.8156097,505.954357 C35.2119752,505.954357 34.6352532,506.204162 34.2223394,506.644477 L9.28426032,533.23743 C7.84126757,534.776179 7.84126757,537.17105 9.28426032,538.709798 Z" id="Combined-Shape"></path>
            </g>
        </g>
    </g>
</svg>