<?xml version="1.0" encoding="utf-8"?>
<!-- Generator: Adobe Illustrator 18.1.1, SVG Export Plug-In . SVG Version: 6.00 Build 0)  -->
<!DOCTYPE svg PUBLIC "-//W3C//DTD SVG 1.1//EN" "http://www.w3.org/Graphics/SVG/1.1/DTD/svg11.dtd">
<svg version="1.1" id="Layer_1" xmlns="http://www.w3.org/2000/svg" xmlns:xlink="http://www.w3.org/1999/xlink" x="0px" y="0px"
	 viewBox="212 106.8 76 286.9" enable-background="new 212 106.8 76 286.9" xml:space="preserve">
<g id="Layer_2">
	<g>
		<path fill="none" stroke="#231F20" stroke-miterlimit="10" d="M231.3,106.8c0,0,0.7,57.2,19.2,57.2s19.2-57.2,19.2-57.2"/>
		<path fill="#939598" stroke="#231F20" stroke-miterlimit="10" d="M261.4,254.1c0.1,5-3.1,9.6-8.1,11.1c-5.7,1.7-11.9-1.5-13.9-7.1
			c-2.2-6.1,1.2-12.7,7.3-14.6c4.8-1.5,9.8,0.4,12.6,4.2c0.5,0.6,1.2,0.9,2,0.7l8.2-2.5c1.1-0.3,1.6-1.5,1.1-2.5
			c-5.4-10.3-17.9-15.3-29.3-10.7c-10.5,4.3-16.4,15.8-13.7,26.8c3.2,13.1,16.7,20.7,29.4,16.7c10.9-3.4,17.5-14.1,16.1-25
			c-0.1-0.8-0.8-1.3-1.6-1c-2.4,0.7-7.2,2.2-9.1,2.8C261.8,253.1,261.4,253.6,261.4,254.1z"/>
		<circle fill="#939598" stroke="#231F20" stroke-miterlimit="10" cx="250" cy="385.9" r="7.3"/>
		<circle fill="#FFFFFF" stroke="#231F20" stroke-miterlimit="10" cx="250" cy="345.3" r="37.5"/>
		<path fill="#939598" stroke="#231F20" stroke-miterlimit="10" d="M263.2,310.6c0,0-2.6,2.3-13,2.3s-13-2.3-13-2.3s0-9.5,0-12.7
			c0-2.8,5.3-3.9,5.3-3.9l-0.2-34.8c0,0-0.4-9.1,7.9-9.1c7.5,0,7.1,9.1,7.1,9.1l0.1,34.7c0,0,5.8,1.4,5.8,3.8
			S263.2,310.6,263.2,310.6z"/>
		<path fill="#939598" stroke="#231F20" stroke-miterlimit="10" d="M258.3,216.8V152c0,0-1.6-3.8-7.8-3.8c-6.8,0-7.8,4.7-7.8,4.7
			l0.2,64c0,0-3,1.1-3,3.9c0,3.2,0,12.7,0,12.7s2.2,2.3,10.7,2.3s10.7-2.3,10.7-2.3s0-10.5,0-12.9S258.3,216.8,258.3,216.8z"/>
		<circle fill="#FFFFFF" cx="250.5" cy="208.5" r="6"/>
		<circle fill="#FFFFFF" cx="250.5" cy="157.1" r="6"/>
		<circle fill="#FFFFFF" cx="250.5" cy="195.7" r="6"/>
		<circle fill="#FFFFFF" cx="250.5" cy="182.8" r="6"/>
		<circle fill="#FFFFFF" cx="250.5" cy="170" r="6"/>
	</g>
</g>
</svg>
