<?xml version="1.0" encoding="utf-8"?>
<!-- Generator: Adobe Illustrator 18.1.1, SVG Export Plug-In . SVG Version: 6.00 Build 0)  -->
<!DOCTYPE svg PUBLIC "-//W3C//DTD SVG 1.1//EN" "http://www.w3.org/Graphics/SVG/1.1/DTD/svg11.dtd">
<svg version="1.1" id="Layer_1" xmlns="http://www.w3.org/2000/svg" xmlns:xlink="http://www.w3.org/1999/xlink" x="0px" y="0px"
	 viewBox="71.2 60.2 57.6 79.6" enable-background="new 71.2 60.2 57.6 79.6" xml:space="preserve">
<g>
	<g>
		<path fill="#939598" d="M100.5,135.5c0,0-6.7,0-7.1,0s-0.3-2-0.5-2.1s-0.7,0-1.6,0s-3.6-1.7-3.6-1.7l-7.1-6.1c0,0-1.2-4.3-1.2-4.8
			s1.6-1.7,1.6-2c-0.1-0.3-4.5,0.1-4.9,0s-1.2-3.5-1.2-3.5l-0.6-4.4l0.7-5.3c0,0,0.8-3.4,0.9-3.8s2.9-0.1,3.3-0.3
			c0.4-0.2-1.3-1.7-1.8-2.1s0.5-2.8,0.5-2.8l5.4-6.5c0,0,4.4-2.9,4.9-3.3s1.3,0.9,1.3,0.9c0.8-0.1,5.9-1.8,10-1.8h0.9
			c4.1,0,9.3,1.6,10,1.8c0,0,0.8-1.2,1.3-0.9s4.9,3.3,4.9,3.3l5.4,6.5c0,0,1,2.4,0.5,2.8s-2.3,1.9-1.8,2.1c0.4,0.2,3.2-0.2,3.3,0.3
			c0.1,0.4,0.9,3.8,0.9,3.8l0.7,5.3l-0.6,4.4c0,0-0.7,3.5-1.2,3.5s-4.9-0.3-4.9,0c-0.1,0.3,1.5,1.5,1.6,2c0,0.5-1.2,4.8-1.2,4.8
			l-7.1,6.1c0,0-2.7,1.7-3.6,1.7s-1.5-0.1-1.6,0c-0.2,0.1,0,2.1-0.5,2.1s-7.1,0-7.1,0"/>
		<path fill="#231F20" d="M106.4,135.8L106.4,135.8c-0.5,0-7.1,0-7.1,0l0,0c-2,0-5.5,0-5.8,0c-0.4,0-0.5-0.8-0.6-1.5
			c0-0.2,0-0.5-0.1-0.6c-0.1,0-0.3,0-0.6,0c-0.2,0-0.6,0-0.9,0c-0.9,0-3.6-1.6-3.7-1.7l-7.1-6.1l0,0c-0.2-0.7-1.2-4.4-1.2-4.8
			c0-0.3,0.4-0.6,0.9-1.2c0.2-0.2,0.5-0.5,0.6-0.7c-0.4-0.1-2,0-3,0s-1.6,0.1-1.7,0c-0.4-0.1-0.9-2-1.3-3.7l-0.6-4.5l0.7-5.4
			c0-0.2,0.8-3.4,0.9-3.8s0.8-0.4,2.1-0.3c0.5,0,1.1,0,1.3,0c0-0.1-0.3-0.5-1.7-1.8l-0.1-0.1c-0.5-0.5,0.2-2.4,0.5-3l0,0l5.4-6.5
			c0,0,4.4-2.9,4.9-3.3c0.1-0.1,0.3-0.1,0.4-0.1c0.4,0.1,0.9,0.7,1,0.9c0.2,0,0.4-0.1,0.8-0.2c1.9-0.5,5.8-1.5,9.2-1.5h0.9
			c3.3,0,7.3,1,9.2,1.5c0.3,0.1,0.6,0.2,0.8,0.2c0.2-0.2,0.6-0.8,1-0.9c0.1,0,0.3,0,0.4,0.1c0.5,0.4,4.8,3.2,4.9,3.3l0,0l5.4,6.5
			c0.2,0.6,1,2.5,0.5,3l-0.1,0.1c-1.3,1.2-1.7,1.6-1.7,1.8c0.2,0.1,0.8,0,1.3,0c1.2,0,2,0,2.1,0.3c0.1,0.4,0.9,3.7,0.9,3.8l0.7,5.4
			l0,0l-0.6,4.4c-0.4,1.6-0.9,3.6-1.3,3.7c-0.2,0-0.7,0-1.7,0s-2.6-0.1-3.1,0c0.1,0.1,0.4,0.5,0.6,0.7c0.5,0.6,0.9,0.9,0.9,1.2
			c0,0.5-1,4.1-1.2,4.8l0,0l-7.1,6.1c-0.1,0.1-2.8,1.7-3.7,1.7c-0.4,0-0.7,0-0.9,0c-0.2,0-0.5,0-0.6,0c0,0.1,0,0.4-0.1,0.6
			C106.9,135,106.8,135.8,106.4,135.8z M104.3,135.4c1.1,0,1.9,0,2.1,0c0.1-0.1,0.2-0.9,0.2-1.2c0-0.6,0.1-0.7,0.2-0.8
			s0.4-0.1,0.8-0.1c0.2,0,0.5,0,0.9,0c0.7,0,2.8-1.2,3.5-1.6l7-6c0.5-1.7,1.2-4.4,1.2-4.7c0-0.2-0.5-0.7-0.8-1
			c-0.5-0.6-0.8-0.8-0.7-1.1c0.1-0.2,0.5-0.3,3.4-0.2c0.7,0,1.5,0.1,1.6,0c0.2-0.1,0.7-1.9,1-3.4l0.6-4.4l-0.7-5.3
			c0,0-0.8-3.4-0.9-3.8c-0.1-0.1-1.1-0.1-1.7-0.1c-0.8,0-1.3,0-1.5-0.1c-0.1,0-0.1-0.1-0.2-0.2c0-0.3,0.4-0.9,1.8-2.1l0.1-0.1
			c0.3-0.2-0.1-1.5-0.5-2.6l-5.4-6.4c-0.4-0.2-4.4-2.9-4.9-3.3h-0.1c-0.3,0.1-0.7,0.6-0.9,0.9l-0.1,0.1h-0.1c-0.2,0-0.5-0.1-0.9-0.2
			c-1.9-0.5-5.8-1.5-9.1-1.5h-0.9c-3.3,0-7.2,1-9.1,1.5c-0.4,0.1-0.7,0.2-0.9,0.2h-0.1l-0.1-0.1c-0.2-0.3-0.6-0.8-0.9-0.9
			c-0.1,0-0.1,0-0.1,0c-0.5,0.3-4.5,3-4.9,3.3L78,96.7c-0.5,1.1-0.8,2.4-0.5,2.6l0.1,0.1c1.4,1.2,1.9,1.8,1.8,2.1
			c0,0.1-0.1,0.2-0.2,0.2c-0.2,0.1-0.7,0.1-1.5,0.1c-0.6,0-1.6,0-1.7,0.1c-0.1,0.4-0.9,3.8-0.9,3.8l-0.7,5.3l0.6,4.4
			c0.3,1.5,0.8,3.3,1,3.4c0.1,0,0.9,0,1.6,0c2.9-0.1,3.3-0.1,3.4,0.2c0.1,0.2-0.2,0.5-0.7,1.1c-0.3,0.3-0.8,0.8-0.8,1
			c0,0.3,0.7,3,1.2,4.7l7,6.1c0.7,0.4,2.8,1.6,3.5,1.6c0.4,0,0.7,0,0.9,0c0.4,0,0.7,0,0.8,0.1c0.1,0.1,0.1,0.3,0.2,0.8
			c0,0.3,0.1,1.1,0.2,1.2c0.4,0,6.8,0,7.1,0l0,0C101.6,135.4,103.1,135.4,104.3,135.4z"/>
	</g>
	<g>
		<path fill="#939598" d="M105.3,86.2c0,0-1.2,1.1-5.9,1.1s-5.9-1.1-5.9-1.1v-7.6h11.8V86.2z"/>
		<path fill="#231F20" d="M99.4,87.4c-4.7,0-6-1-6-1.1h-0.1v-7.8h12.2v7.8h-0.1C105.4,86.4,104.2,87.4,99.4,87.4z M93.7,86.1
			c0.3,0.2,1.7,1,5.7,1s5.5-0.8,5.7-1v-7.3H93.7V86.1z"/>
	</g>
	<g>
		<path fill="#939598" d="M104.5,72.5c-0.6,2.2-2.6,3.7-5,3.7c-2.7,0-5-2.3-5.1-5c-0.1-2.9,2.2-5.4,5.1-5.4c2.3,0,4.2,1.5,4.9,3.5
			c0.1,0.3,0.4,0.6,0.8,0.6h3.9c0.5,0,0.9-0.5,0.8-1c-0.9-5.2-5.7-9.1-11.3-8.6c-5.1,0.4-9.2,4.7-9.6,9.8
			c-0.4,6.1,4.5,11.2,10.5,11.2c5.2,0,9.5-3.8,10.4-8.7c0.1-0.3-0.2-0.7-0.5-0.7c-1.1,0-3.4,0-4.4,0
			C104.7,72.1,104.5,72.3,104.5,72.5z"/>
		<path fill="#231F20" d="M99.5,81.6c-2.9,0-5.8-1.2-7.8-3.4c-2-2.2-3.1-5-2.9-8c0.3-5.2,4.5-9.5,9.7-10c0.3,0,0.6,0,0.9,0
			c5.2,0,9.6,3.7,10.5,8.8c0.1,0.3,0,0.6-0.2,0.8c-0.2,0.2-0.5,0.4-0.8,0.4H105c-0.4,0-0.8-0.3-0.9-0.7c-0.7-2-2.6-3.4-4.7-3.4
			c-1.4,0-2.6,0.5-3.6,1.5c-0.9,1-1.4,2.3-1.4,3.7c0.1,2.6,2.3,4.8,4.9,4.8h0.1c2.2,0,4.2-1.5,4.8-3.6c0.1-0.3,0.4-0.5,0.7-0.5h4.4
			c0.2,0,0.4,0.1,0.5,0.3c0.1,0.2,0.2,0.4,0.2,0.6C109.1,77.9,104.7,81.6,99.5,81.6z M99.5,60.6c-0.3,0-0.6,0-0.9,0
			c-5.1,0.4-9.1,4.6-9.4,9.6c-0.2,3,0.8,5.7,2.7,7.8c2,2.1,4.7,3.3,7.6,3.3c5,0,9.3-3.6,10.2-8.6c0-0.1,0-0.2-0.1-0.3
			c-0.1-0.1-0.2-0.1-0.3-0.1H105c-0.2,0-0.3,0.1-0.4,0.3c-0.7,2.3-2.8,3.8-5.1,3.8h-0.1c-2.8,0-5.1-2.3-5.2-5.1
			c-0.1-1.5,0.5-2.8,1.5-3.9s2.4-1.6,3.8-1.6c2.3,0,4.3,1.5,5,3.6c0.1,0.3,0.3,0.5,0.6,0.5h3.9c0.2,0,0.4-0.1,0.5-0.2
			s0.2-0.3,0.1-0.5C108.8,64.2,104.5,60.6,99.5,60.6z"/>
	</g>
	<g>
		<circle fill="#FFFFFF" cx="100.4" cy="110.6" r="7"/>
		<path fill="#231F20" d="M100.4,117.8c-3.9,0-7.1-3.2-7.1-7.1s3.2-7.1,7.1-7.1s7.1,3.2,7.1,7.1S104.3,117.8,100.4,117.8z
			 M100.4,103.8c-3.8,0-6.8,3.1-6.8,6.8s3.1,6.8,6.8,6.8s6.8-3.1,6.8-6.8S104.1,103.8,100.4,103.8z"/>
	</g>
	<g>
		<path fill="#FFFFFF" d="M82.8,104.6c-2.5,0-5,2.5-5,6c0,4,2,6,4.5,6s4.3-3.6,4.3-6S85.2,104.6,82.8,104.6z"/>
		<path fill="#231F20" d="M82.3,116.7c-2.2,0-4.7-1.6-4.7-6.1c0-3.7,2.6-6.1,5.1-6.1l0,0c2.4,0,3.9,3.6,3.9,6.1
			c0,1.2-0.5,2.7-1.2,3.9C84.6,115.9,83.5,116.7,82.3,116.7z M82.8,104.8c-2.3,0-4.8,2.3-4.8,5.8c0,3.6,1.7,5.8,4.3,5.8
			c2.3,0,4.1-3.5,4.1-5.8C86.4,108.2,85,104.8,82.8,104.8L82.8,104.8z"/>
	</g>
	<g>
		<path fill="#FFFFFF" d="M94.6,95.3c3.2-2.2,3.1-4.2,3-5.3c-0.1-1.1-4.9-5.5-8.7-2.4c-3.8,3.1-4,7.3-2.8,8.4
			C87.4,96.9,90.6,98.1,94.6,95.3z"/>
		<path fill="#231F20" d="M89.6,97.2L89.6,97.2c-2,0-3.2-0.9-3.5-1.2c-0.5-0.4-0.7-1.2-0.7-2.2c0-1.7,0.9-4.4,3.5-6.4
			c0.9-0.7,1.9-1.1,3-1.1c3,0,5.8,2.8,5.9,3.7c0.1,0.9,0.2,3.1-3.1,5.5C93,96.6,91.3,97.2,89.6,97.2z M91.9,86.7c-1,0-2,0.3-2.8,1
			c-2.4,2-3.3,4.5-3.4,6.2c0,0.9,0.2,1.6,0.6,1.9c0.3,0.3,1.4,1.1,3.3,1.1l0,0c1.6,0,3.2-0.6,4.9-1.7c3.2-2.2,3-4.2,3-5.2
			C97.4,89.3,94.8,86.7,91.9,86.7z"/>
	</g>
	<g>
		<path fill="#FFFFFF" d="M80.9,123.9c-1,0.7-1.4,5.6,0.8,7.3c2.1,1.7,5.4,2.4,7.4,1.4s-1.7-5.5-2.5-6.4S82.8,122.7,80.9,123.9z"/>
		<path fill="#231F20" d="M86.9,133.3L86.9,133.3c-1.8,0-3.9-0.7-5.3-1.9c-1.3-1.1-1.7-3.2-1.6-4.9c0-1,0.3-2.3,0.9-2.6
			c0.4-0.2,0.8-0.4,1.3-0.4c2.2,0,4.7,2.7,4.7,2.7s3.5,3.9,3.1,5.8c-0.1,0.4-0.3,0.7-0.7,0.8C88.6,133.1,87.8,133.3,86.9,133.3z
			 M82,123.8c-0.4,0-0.8,0.1-1.1,0.3c-0.4,0.2-0.7,1.2-0.7,2.4c-0.1,1.6,0.3,3.7,1.5,4.6c1.4,1.1,3.4,1.8,5.1,1.8l0,0
			c0.8,0,1.6-0.2,2.2-0.4c0.3-0.1,0.4-0.3,0.5-0.6c0.3-1.5-2.1-4.5-3-5.5C85.8,125.6,83.8,123.8,82,123.8z"/>
	</g>
	<g>
		<path fill="#FFFFFF" d="M100.6,139.6c3.2,0,4.9-1.5,5.6-4.2H94.6C94.6,135.4,95.6,139.6,100.6,139.6z"/>
		<path fill="#231F20" d="M100.5,139.8c-5,0-6-4.2-6.1-4.3v-0.2h11.9l-0.1,0.2C105.6,138.3,103.7,139.7,100.5,139.8L100.5,139.8z
			 M94.9,135.6c0.1,0.3,0.4,1.1,1,1.8c1.1,1.3,2.7,2,4.7,2h0.1c2.9,0,4.6-1.3,5.3-3.8H94.9z"/>
	</g>
	<g>
		<path fill="#FFFFFF" d="M71.4,109.9c-0.1,2.9,1.3,6.1,4.2,6.4l-0.2-11.9C75.4,104.4,71.6,104.7,71.4,109.9z"/>
		<path fill="#231F20" d="M75.7,116.4h-0.2c-3-0.3-4.4-3.5-4.3-6.5c0.2-5.2,4.1-5.7,4.1-5.7h0.2L75.7,116.4z M75.2,104.5
			c-0.7,0.1-3.5,1-3.7,5.4c-0.1,2.8,1.2,5.8,3.8,6.2L75.2,104.5z"/>
	</g>
	<g>
		<path fill="#FFFFFF" d="M78.8,88.9c-2.1,2.3-1.5,7-1,7.7s2.5-1.3,4.8-3.8c0.9-1.1,4.1-4,3.7-4.8C85.6,86.5,80.3,87.3,78.8,88.9z"
			/>
		<path fill="#231F20" d="M78.1,96.9L78.1,96.9c-0.2,0-0.3-0.1-0.4-0.2c-0.6-0.8-1.2-5.6,1-7.9c1-1.1,3.6-1.8,5.4-1.8
			c1.3,0,2.1,0.3,2.4,0.9c0.3,0.7-1.1,2.3-2.9,4.1c-0.3,0.3-0.6,0.6-0.8,0.9C80.5,95.3,79,96.9,78.1,96.9z M84.1,87.3
			c-1.7,0-4.2,0.6-5.1,1.7c-2,2.2-1.5,6.8-1,7.5c0,0.1,0.1,0.1,0.2,0.1c0.8,0,3.2-2.6,4.3-3.9c0.2-0.2,0.5-0.5,0.8-0.9
			c1-1,3.1-3.2,2.8-3.8C85.9,87.6,85.2,87.3,84.1,87.3z"/>
	</g>
	<g>
		<path fill="#FFFFFF" d="M100.4,123.8c-5.8,0-6.2,3.4-6.2,4.1c0,0.7,1.3,5.2,6.2,5.2s6.2-4.5,6.2-5.2
			C106.6,127.2,106.2,123.8,100.4,123.8z"/>
		<path fill="#231F20" d="M100.4,133.3c-5,0-6.3-4.5-6.4-5.4c0-0.1,0-1.4,1.1-2.6c1.1-1.1,2.9-1.7,5.3-1.7s4.2,0.6,5.3,1.7
			c1.1,1.1,1.1,2.4,1.1,2.6C106.7,128.7,105.4,133.3,100.4,133.3z M100.4,123.9c-2.3,0-4,0.5-5.1,1.6c-1,1-1,2.2-1,2.3
			c0,0.1,0.8,5,6,5s6-5,6-5c0-0.1,0-1.3-1-2.3C104.4,124.5,102.7,123.9,100.4,123.9z"/>
	</g>
	<g>
		<path fill="#FFFFFF" d="M117.2,105.1c2.5,0,5,2.5,5,6c0,4-2,6-4.5,6s-4.3-3.6-4.3-6S114.8,105.1,117.2,105.1z"/>
		<path fill="#231F20" d="M117.7,117.2c-1.2,0-2.3-0.8-3.2-2.2c-0.8-1.2-1.2-2.7-1.2-3.9c0-2.5,1.5-6.1,3.9-6.1l0,0
			c2.5,0,5.1,2.5,5.1,6.1C122.3,115.6,119.9,117.2,117.7,117.2z M117.2,105.3L117.2,105.3c-2.3,0-3.7,3.4-3.7,5.8
			c0,2.3,1.8,5.8,4.1,5.8c2.7,0,4.3-2.2,4.3-5.8C122,107.6,119.5,105.3,117.2,105.3z"/>
	</g>
	<g>
		<path fill="#FFFFFF" d="M105.4,95.8c-3.2-2.2-3.1-4.2-3-5.3s4.9-5.5,8.7-2.4c3.8,3.1,4,7.3,2.8,8.4
			C112.6,97.4,109.4,98.6,105.4,95.8z"/>
		<path fill="#231F20" d="M110.4,97.7c-1.7,0-3.4-0.6-5.1-1.8c-3.4-2.3-3.2-4.5-3.1-5.5c0.1-0.9,2.9-3.7,5.9-3.7
			c1.1,0,2.1,0.4,3,1.1c2.5,2.1,3.5,4.7,3.5,6.4c0,1-0.2,1.8-0.7,2.2C113.6,96.8,112.4,97.7,110.4,97.7z M108.1,87.1
			c-2.9,0-5.5,2.7-5.6,3.3c-0.1,1-0.2,2.9,3,5.2c1.6,1.1,3.3,1.7,4.9,1.7c1.9,0,3-0.8,3.3-1.1c0.4-0.3,0.6-1,0.6-1.9
			c0-1.7-0.9-4.2-3.4-6.2C110.1,87.5,109.1,87.1,108.1,87.1z"/>
	</g>
	<g>
		<path fill="#FFFFFF" d="M119.1,124.4c1,0.7,1.4,5.6-0.8,7.3c-2.1,1.7-5.4,2.4-7.4,1.4s1.7-5.5,2.5-6.4S117.2,123.2,119.1,124.4z"
			/>
		<path fill="#231F20" d="M113.1,133.7c-0.9,0-1.7-0.2-2.3-0.5c-0.4-0.2-0.6-0.5-0.7-0.8c-0.4-1.9,3.1-5.8,3.1-5.8s2.5-2.7,4.7-2.7
			c0.5,0,0.9,0.1,1.3,0.4c0.6,0.4,0.8,1.6,0.9,2.6c0.1,1.7-0.3,3.8-1.6,4.9C117,133,114.9,133.7,113.1,133.7z M118,124.3
			c-1.7,0-3.8,1.9-4.4,2.6c-0.9,1-3.3,4.1-3,5.5c0.1,0.3,0.2,0.5,0.5,0.6c0.6,0.3,1.3,0.4,2.2,0.4c1.8,0,3.7-0.7,5.1-1.8
			c1.2-1,1.6-3,1.5-4.6c-0.1-1.2-0.3-2.1-0.7-2.4C118.7,124.4,118.4,124.3,118,124.3z"/>
	</g>
	<g>
		<path fill="#FFFFFF" d="M128.6,110.4c0.1,2.9-1.3,6.1-4.2,6.4l0.2-11.9C124.6,104.8,128.4,105.2,128.6,110.4z"/>
		<path fill="#231F20" d="M124.3,116.9l0.2-12.3h0.2c0,0,4,0.5,4.1,5.7c0.1,3-1.4,6.2-4.3,6.5L124.3,116.9z M124.8,105l-0.2,11.5
			c2.6-0.4,3.9-3.4,3.8-6.2c-0.1-2.1-0.8-3.6-2-4.6C125.8,105.3,125.1,105.1,124.8,105z"/>
	</g>
	<g>
		<path fill="#FFFFFF" d="M121.2,89.4c2.1,2.3,1.5,7,1,7.7s-2.5-1.3-4.8-3.8c-0.9-1.1-4.1-4-3.7-4.8
			C114.4,86.9,119.7,87.7,121.2,89.4z"/>
		<path fill="#231F20" d="M121.9,97.4c-0.8,0-2.4-1.5-4.6-4c-0.2-0.2-0.5-0.5-0.8-0.9c-1.8-1.8-3.2-3.4-2.9-4.1
			c0.3-0.6,1.1-0.9,2.4-0.9c1.8,0,4.4,0.7,5.4,1.8c2.2,2.4,1.6,7.2,1,7.9C122.2,97.3,122,97.4,121.9,97.4z M115.9,87.8
			c-1.1,0-1.9,0.3-2.1,0.7c-0.3,0.6,1.8,2.7,2.8,3.8c0.3,0.3,0.6,0.6,0.8,0.9c1.1,1.3,3.5,3.9,4.3,3.9c0.1,0,0.1,0,0.2-0.1
			c0.5-0.7,1.1-5.3-1-7.5C120.1,88.4,117.7,87.8,115.9,87.8z"/>
	</g>
</g>
</svg>
