<?xml version="1.0" encoding="utf-8"?>
<!-- Generator: Adobe Illustrator 18.1.1, SVG Export Plug-In . SVG Version: 6.00 Build 0)  -->
<!DOCTYPE svg PUBLIC "-//W3C//DTD SVG 1.1//EN" "http://www.w3.org/Graphics/SVG/1.1/DTD/svg11.dtd">
<svg version="1.1" id="Layer_1" xmlns="http://www.w3.org/2000/svg" xmlns:xlink="http://www.w3.org/1999/xlink" x="0px" y="0px"
	 viewBox="0 0 305.7 101.5" enable-background="new 0 0 305.7 101.5" xml:space="preserve">
<path fill="#D1D3D4" stroke="#231F20" stroke-miterlimit="10" d="M51.5,65.3c0,0-22.1-16.2-22.8-17.3c-0.7-1.2-2.2,0.3-8.4,0
	C14.1,47.6,4.2,42.3,2,35.3s-2.5-12.7,2.5-21.6c5.9-10.5,14.9-9.6,19.4-9.8s10,1.1,10.3,4.8s-4.9,6.6-5.7,7.1c-0.8,0.5-6.3-2-10.4,0
	c-4,2-7.9,8-5.4,13.3c4.7,10.3,16.4,4.1,18.8-0.6S30,20,29.8,19.1c-0.2-0.9,6.2-7.2,7.4-7.3s2.6,0.2,4.9,4.2
	c2.3,4,1.8,12.4,1.8,12.4c1.9-0.3,12.3,10,16.6,14.2s7.1,7,5.8,13.7c-0.7,3.9-3.5,6.2-6.8,7.6c0,0-4.4-4.4-4.1-6.7
	c0,0,4.7-2.2,3-6.2s-3.5-4.7-3.5-4.7s-5.7,4.3-6.3,6.8C47,59.5,51.5,65.3,51.5,65.3z"/>
<path fill="#808285" stroke="#231F20" stroke-miterlimit="10" d="M58.5,51c0,0-8-2-9.5,1s-1.7,11,7,18s14.5,5.4,16.6,3.6
	c1.9-1.7,1.1-4.4,1.1-4.4s-2.5-0.3-3.7-0.1c-3.1,0.4-2.5,0.4-8.6-3.8s-6.5-7.6-5.7-8.4C56.9,55.8,59.6,54.3,58.5,51z"/>
<path fill="#6D6E71" stroke="#231F20" stroke-miterlimit="10" d="M72.2,62.4c-2.1,0.2-6.7,0.9-8.1,1.5l-2.2-1.4c0,0,3.7-3.2,4.4-5.8
	C67,54.1,72.2,62.4,72.2,62.4z"/>
<path fill="#D1D3D4" stroke="#231F20" stroke-miterlimit="10" d="M76.1,62.5c-4.9-0.4-10.3,0.3-14.5,2.8c0,0,4.4,3.7,5.6,4
	c1.2,0.3,5.5-1.4,9.8,1.1c4.3,2.5,6.8,5.5,6.5,6.2c-0.3,0.7-2.4,2.5-5,2.2c0,0-0.5,4.8,3.6,6.5c0,0,8.6-3,8.4-9.2
	C90.2,69.9,81.6,62.9,76.1,62.5z"/>
<path fill="#D1D3D4" stroke="#231F20" stroke-miterlimit="10" d="M72.2,84.3c0,0-0.7-4.9,0.2-7.3l-2-2.2c0,0-4.9,1.1-9.3-1.3
	c0,0,2.6,4.7,5.6,7.4C69.6,83.7,72.2,84.3,72.2,84.3z"/>
<path fill="#808285" stroke="#231F20" stroke-miterlimit="10" d="M71.9,80.2c0,9.2,4.1,12.3,13,14.1c8.8,1.8,32.7,5.2,32.7,5.2
	s13.9,0.7,16.5-9.4c1.9-7.1-0.3-6.5-0.3-6.5s-4.8,0.9-6,1.6c-1.2,0.7,2.8,6.5-7.7,6.5c-10.4,0.1-31.1-4-31.1-4s-11.6-2.5-10.6-8.6
	c0.7-4,3.7-4.1,4.3-4.3c0.2-0.1-5.7-4.4-5.7-4.4S71.9,74.3,71.9,80.2z"/>
<path fill="#808285" stroke="#231F20" stroke-miterlimit="10" d="M106.5,69.5c10.4,2.3,20.5,4.8,22.2,6.8c0,0-7.4,3.2-8.3,5.2
	c0,0-5.5-2.1-15.6-3.8s-14.5-2.3-14.6-2.8c0,0-1.3-5.1-5.3-7.9C84.9,66.9,94,66.7,106.5,69.5z"/>
<path fill="#D1D3D4" stroke="#231F20" stroke-miterlimit="10" d="M134.7,92.2c1.1,0.1,1.4,0,1.4,0s3.4,6.1,5.2,6.6c0,0-3,1.2-6.8,1
	c-3.8-0.2-6.1-1-6.8-2.3c0,0,4.7-2.5,5.6-5.6L134.7,92.2z"/>
<path fill="#D1D3D4" stroke="#231F20" stroke-miterlimit="10" d="M118.6,86.6c0.1-4.2,5.3-12.1,16.5-10.7s15.9,7.6,16.1,10.3
	c0.2,2.8-0.6,6.7-1.5,7.3c0,0-5.6-0.6-6.2-2.2c0,0,2-3.5-2.3-6.1S130,84.5,130,84.5s-5.6,1-2.8,4.6c0,0-1.5,2.5-6.2,2.4
	C121,91.6,118.5,90.5,118.6,86.6z"/>
<path fill="#808285" stroke="#231F20" stroke-miterlimit="10" d="M151.2,75.4c-3.8,0.6-6.6,1.6-7.8,2.9c0,0,7.9,5.1,7.8,6.4
	c0,0,2.7-0.5,3.4-0.2c0,0-0.9-5,5.5-8.3C160,76.1,153.6,75,151.2,75.4z"/>
<path fill="#808285" stroke="#231F20" stroke-miterlimit="10" d="M154.8,100.8c-9.2,0.6-12.8-1.2-16.3-4.9
	c-3.5-3.7-2.7-10.1-0.5-11.9c0,0,5.4,1.6,5.8,5.1c0.1,0.7-0.2,2.1-0.2,2.1s5.1,3.3,10.3,2.2s7.9-3.4,8.4-5.7c0,0-0.4-2.4,0.4-3.8
	c1.9-3.1,3.2-2.7,3.2-2.7s5.3,5,0,13.8C163,99.9,154.8,100.8,154.8,100.8z"/>
<path fill="#D1D3D4" stroke="#231F20" stroke-miterlimit="10" d="M254.2,61.8c0,0,22.1-16.2,22.8-17.3c0.7-1.2,2.2,0.3,8.4,0
	c6.2-0.3,16.1-5.6,18.2-12.7s2.5-12.7-2.5-21.6c-5.9-10.5-14.9-9.6-19.4-9.8c-4.5-0.2-10,1.1-10.3,4.8s4.9,6.6,5.7,7.1
	c0.8,0.5,6.3-2,10.4,0c4,2,7.9,8,5.4,13.3c-4.7,10.3-16.4,4.1-18.8-0.6s1.5-8.5,1.7-9.4c0.2-0.9-6.2-7.2-7.4-7.3s-2.6,0.2-4.9,4.2
	c-2.3,4-1.8,12.4-1.8,12.4c-1.9-0.3-12.3,10-16.6,14.2s-7.1,7-5.8,13.7c0.7,3.9,3.5,6.2,6.8,7.6c0,0,4.4-4.4,4.1-6.7
	c0,0-4.7-2.2-3-6.2s3.5-4.7,3.5-4.7s6.4,5.6,6.8,6.9C259.5,56.1,254.2,61.8,254.2,61.8z"/>
<path fill="#808285" stroke="#231F20" stroke-miterlimit="10" d="M247.9,47.6c0,0,7.2-2.1,8.8,1s1.7,11-7,18s-14.5,5.4-16.6,3.6
	c-1.9-1.7-1.2-3.9-1.2-3.9s3.8,0.1,5.1-0.1c2.1-0.3,1.2-0.2,7.4-4.4s7.5-7.9,6.1-8.8S245.4,49.7,247.9,47.6z"/>
<path fill="#808285" stroke="#231F20" stroke-miterlimit="10" d="M234.4,58.5c2.1,0.2,8.7,2.5,9.7,3.3l2.1-1.4c0,0-6.7-3.3-7-7.1
	C239,49.5,234.4,58.5,234.4,58.5z"/>
<path fill="#D1D3D4" stroke="#231F20" stroke-miterlimit="10" d="M229.6,59.1c4.9-0.4,10.3,0.3,14.5,2.8c0,0-4.4,3.7-5.6,4
	c-1.2,0.3-5.5-1.4-9.8,1.1c-4.3,2.5-6.8,5.5-6.5,6.2c0.3,0.7,2.4,2.5,5,2.2c0,0,0.5,4.8-3.6,6.5c0,0-8.6-3-8.4-9.2
	C215.5,66.5,224.1,59.5,229.6,59.1z"/>
<path fill="#D1D3D4" stroke="#231F20" stroke-miterlimit="10" d="M234.1,80.3l-0.6-6.9l1.8-2c0,0,4.9,1.1,9.3-1.3
	c0,0-2.6,4.7-5.6,7.4C236,80.3,234.1,80.3,234.1,80.3z"/>
<path fill="#808285" stroke="#231F20" stroke-miterlimit="10" d="M233.8,76.8c0,9.2-4.1,12.3-13,14.1s-32.7,5.2-32.7,5.2
	s-13.9,0.7-16.5-9.4c-1.9-7.1,0.3-6.5,0.3-6.5s4.8,0.9,6,1.6c1.2,0.7-2.8,6.5,7.7,6.5c10.4,0.1,31.1-4,31.1-4s11.6-2.5,10.6-8.6
	c-0.7-4-3.2-3.8-3.7-4.1s5.1-4.8,5.1-4.8S233.8,70.9,233.8,76.8z"/>
<path fill="#808285" stroke="#231F20" stroke-miterlimit="10" d="M199.2,66c-10.4,2.3-20.5,4.8-22.2,6.8c0,0,7.4,3.2,8.2,5.2
	c0,0,5.5-2.1,15.6-3.8s14.5-2.3,14.6-2.8c0,0,1.3-5.1,5.3-7.9C220.7,63.5,211.7,63.3,199.2,66z"/>
<path fill="#D1D3D4" stroke="#231F20" stroke-miterlimit="10" d="M170.9,88.8c-1.1,0.1-2.7-1.3-2.7-1.3s-0.6,7-3.1,8.7
	c0,0,3.8,0.3,6,0.2c3.8-0.2,6.1-1,6.8-2.3c0,0-4.7-2.5-5.6-5.6L170.9,88.8z"/>
<path fill="#D1D3D4" stroke="#231F20" stroke-miterlimit="10" d="M187.1,83.2c-0.1-4.2-5.3-12.1-16.5-10.7
	c-11.1,1.5-15.9,7.6-16.1,10.3c-0.2,2.8-0.6,5.5,3.1,9.4c0,0,3.7-0.9,4.7-4.4c0,0-1.6-3.8,2.8-6.4s10.6-0.4,10.6-0.4s5.6,1,2.8,4.6
	c0,0,1.5,2.5,6.2,2.4C184.7,88.2,187.2,87.1,187.1,83.2z"/>
</svg>
