<?xml version="1.0" encoding="utf-8"?>
<!-- Generator: Adobe Illustrator 18.1.1, SVG Export Plug-In . SVG Version: 6.00 Build 0)  -->
<!DOCTYPE svg PUBLIC "-//W3C//DTD SVG 1.1//EN" "http://www.w3.org/Graphics/SVG/1.1/DTD/svg11.dtd">
<svg version="1.1" id="Layer_1" xmlns="http://www.w3.org/2000/svg" xmlns:xlink="http://www.w3.org/1999/xlink" x="0px" y="0px"
	 viewBox="78.4 179 332.7 146.3" enable-background="new 78.4 179 332.7 146.3" xml:space="preserve">
<g id="Layer_2">
	<g>
		<path fill="#BCBEC0" stroke="#231F20" stroke-width="0.5" stroke-miterlimit="10" d="M174.1,197.9c0,0,0,0,1.1,0.5
			s3.8,1.9,4.4,3.6c0.6,1.7,1.7,4.8,0.1,5.2c-1.6,0.3-4.3,0.7-8.2-1.4c-3.9-2.1-4.8-5.6-4.8-5.6s8.6-2.6,13.3-4.3s3.8-4.6,3.8-4.6
			s-0.2-0.6-1.5-3.4s-6.3-1.3-6.3-1.3l-10.6,3.4c-0.3-3.1,4.5-7.6,11-9.2s14.2,5.9,14.2,5.9s3.4-1.6,7.1-1.8
			c3.7-0.2,5.4,0.6,5.4,0.6c2.8-0.5,6.9,1.4,8.4,2.2c0.3,0.1,0.2,0.5,0,0.6l-3.9,1.4c-0.1,0.1-0.3,0-0.4,0c-0.4-0.2-1.5-0.3-2.1-0.4
			c-0.3,0-0.4,0.2-0.4,0.5l1.1,4.7c0.1,0.3,0.3,0.6,0.7,0.7c1.2,0.3,4,0.8,5.5-0.5c1.8-1.6,1.8,2.3,0.3,3.3s-3.6,2.3-6.6,2.1
			c0,0-2.2,1.4-5.4,1.8c-3.2,0.3-5.8,0.5-7.7-0.1c0,0-4.2,5.8-7.1,6.1c-2.9,0.3-3-3.1-3-3.1s-0.3-0.9-0.2-2.7s1.1-2,2.2-2.6
			c1.1-0.7,2.5-2.2,1.3-5.1c-1.2-2.9-1.8-2.5-1.8-2.5"/>
		<path fill="#939598" stroke="#231F20" stroke-width="0.5" stroke-miterlimit="10" d="M157.5,189.7c0,0,3.1,3.4,3.8,6.8
			c1.4,6.5,0.7,9.4,0.7,10.6c0,0,4.3-2.6,4.7-7c0,0,12.6-3.5,15.1-5.2s2.3-3.1,1-6s-2.8-3.3-7.7-2.2s-11,3.7-11,3.7
			S160.4,188.8,157.5,189.7z"/>
	</g>
	<circle fill="#FFFFFF" stroke="#231F20" stroke-width="0.5" stroke-miterlimit="10" cx="139.5" cy="203.3" r="23"/>
	<g>
		<path fill="#939598" stroke="#231F20" stroke-width="0.5" stroke-miterlimit="10" d="M92.2,222.9c0,0-3.6-5.2-1.1-11.2
			s8.7-6.1,11.4-6.1c4.5,0.1,8.4,2,8.4,2l-4.8,4.1c0,0-3.9-1.9-5.9,0.3c-1.4,1.5-3,3.9,3.3,6.7c0,0,3.5,1.7,7.4,0.2s6.8-4.7,6.8-4.7
			s2.2,1.3,2.3,2.7s1.6,5.5-2.6,9.4c0,0-6.8-5.1-11.8-5.1S92.2,222.9,92.2,222.9z"/>
		<path fill="#BCBEC0" stroke="#231F20" stroke-width="0.5" stroke-miterlimit="10" d="M114.6,206.3c0,0-3.3,0.7-5.9,3.3
			s-8.7,7.1-8.7,7.1s3.4,2.7,6.3,2.8c4.1,0.1,6.3-0.9,8.3-2.5s3.1-2.7,3.1-2.7s1.5,0.8,2.1,2s0.6,3.7,0.6,3.7s3.7-1.1,5.8-1.5
			c2.1-0.4,2.9,0.2,4.2-1.2s4.4-6,1.2-11.7s-9.3-4.2-9.3-4.2s-2.4,0.2-4.8,2.1S114.6,206.3,114.6,206.3z"/>
	</g>
	<circle fill="#FFFFFF" stroke="#231F20" stroke-width="0.5" stroke-miterlimit="10" cx="102.6" cy="244.9" r="23.9"/>
	<g>
		<path fill="#808285" stroke="#231F20" stroke-width="0.5" stroke-miterlimit="10" d="M128.4,270.7c0,0-3.3,2.9-3.3,8.2
			c0,5.3,0,9.8,0,9.8l-2.7-0.6c0,0-1.5,2.3-3.3,3c-1.3,0.5-2.7,0.4-3.8,0.3c-1-0.1-2.3-7.5-1.7-7.8c0.7-0.3,2.3-2.1,1.8-4.2
			s-6.1-9.2-8.8-7.2s-2.2,3.3-2.2,3.3s-3.8,0.2-5.8-1.9s-3.6-2.2-1.8-5.5c1.8-3.3,7.2-5.9,10.8-5.8
			C111.3,262.5,128.4,270.7,128.4,270.7z"/>
		<path fill="#808285" stroke="#231F20" stroke-width="0.5" stroke-miterlimit="10" d="M111.8,284.7c0,0,1.4,2.9,1.1,4.5
			s-0.7,2.7-2.8,2.4c-2.2-0.3-6.3-3.3-7.2-4.4c-0.9-1.1-2-2-2-2s4.2,1.2,6.8,0.8C110.2,285.7,111.8,284.7,111.8,284.7z"/>
		<path fill="#BCBEC0" stroke="#231F20" stroke-width="0.5" stroke-miterlimit="10" d="M91.8,256.6l-0.4,5c0,0-5.6,1.6-5.6,7.4
			c0.1,4.5,1.7,8.5,7.4,12.4c2.9,2,6.5,3.8,9.5,4.3c3,0.4,6.2,0.9,9.9-1.4s2.9-3.3,2.6-5.5c-0.4-2.2-5.9-7.1-7.6-6.8
			c-1.7,0.3-2.6,1.9-2.6,1.9s1.2,0.8,0.9,1.4c-0.2,0.4-0.6,0.6-2.1,0.4s-9-3-8.3-6.1c0.6-2.5,1.8-2.1,1.8-2.1s4.1-4.3,8.4-4.9
			c0,0,1.6-0.6,4.5,0.4l-0.9-2c0,0,1.5-3.1,0.3-5.1s-4.5-4.4-8.7-4.3C96.9,251.6,93.4,252.4,91.8,256.6z"/>
	</g>
	<circle fill="#FFFFFF" stroke="#231F20" stroke-width="0.5" stroke-miterlimit="10" cx="148.6" cy="283.8" r="24.9"/>
	<g>
		<path fill="#808285" stroke="#231F20" stroke-width="0.5" stroke-miterlimit="10" d="M192.5,292.9c0,0-4.5,1.6-3.2,2.9
			s6.2,4.5,11.2,2.5s6.1-3,5.8-5.2s-4.2-4.1-4.2-4.1l-3.4-4.6c0,0,5.1-2.2,12,4.6c0,0,2.8-1,5.4-1s5.5,1,5.5,1s-1.4,1-1.5,7.9
			s0.5,9.8,0.5,9.8l-11-1.5c0,0-6.6,5.1-14.4,4.2c-6.6-0.7-15.6-7-15.6-15.4s7.1-9.4,7.1-9.4L192.5,292.9z"/>
		<path fill="#BCBEC0" stroke="#231F20" stroke-width="0.5" stroke-miterlimit="10" d="M188.4,279.4c-2.5,1.2-1.8,5.1-1.8,5.1
			s6.8,9.1,6.5,9.9s-1.5,0.2-2.8-0.6c0,0-1.7,0.4-1.3,1.7c0.2,0.7,4.7,4,8.1,3.4s7.7-1.6,8-4.7s-3.1-5.3-3.1-5.3s-3.5-5.2-5.9-7.8
			C193.9,278.7,190.7,278.3,188.4,279.4z"/>
		<path fill="#BCBEC0" stroke="#231F20" stroke-width="0.5" stroke-miterlimit="10" d="M169.3,277.4c-2.5,0.4-6.3,3.3-6.2,10.2
			c0.1,6.9,2.8,8.7,6,9.1s6.8-0.4,7.5,0.2s5.4,4.4,5.4,4.4s-4.9-7.2-0.6-13.5c0,0,2-2.2,3.5-2.7s0.1-4-1.1-5.4
			c-1.2-1.4-2.4-2.7-3.2-2.5s-3.7,2.3-5,2.2S171.1,277.1,169.3,277.4z"/>
	</g>
	<g>
		<path fill="#BCBEC0" stroke="#231F20" stroke-width="0.5" stroke-miterlimit="10" d="M315.5,198.2c0,0,0,0-1.1,0.5
			s-3.8,1.9-4.4,3.6c-0.6,1.7-1.7,4.8-0.1,5.2c1.6,0.3,4.3,0.7,8.2-1.4c3.9-2.1,4.8-5.6,4.8-5.6s-8.6-2.6-13.3-4.3s-3.8-4.6-3.8-4.6
			s0.2-0.6,1.5-3.4s6.3-1.3,6.3-1.3l10.6,3.4c0.3-3.1-4.5-7.6-11-9.2S299,187,299,187s-3.4-1.6-7.1-1.8s-5.4,0.6-5.4,0.6
			c-2.8-0.5-6.9,1.4-8.4,2.2c-0.3,0.1-0.2,0.5,0,0.6l3.9,1.4c0.1,0.1,0.3,0,0.4,0c0.4-0.2,1.5-0.3,2.1-0.4c0.3,0,0.4,0.2,0.4,0.5
			l-1.1,4.7c-0.1,0.3-0.3,0.6-0.7,0.7c-1.2,0.3-4,0.8-5.5-0.5c-1.8-1.6-1.8,2.3-0.3,3.3s3.6,2.3,6.6,2.1c0,0,2.2,1.4,5.4,1.8
			c3.2,0.3,5.8,0.5,7.7-0.1c0,0,4.2,5.8,7.1,6.1s3-3.1,3-3.1s0.3-0.9,0.2-2.7c-0.1-1.8-1.1-2-2.2-2.6c-1.1-0.7-2.5-2.2-1.3-5.1
			s1.8-2.5,1.8-2.5"/>
		<path fill="#939598" stroke="#231F20" stroke-width="0.5" stroke-miterlimit="10" d="M332.1,190c0,0-3.1,3.4-3.8,6.8
			c-1.4,6.5-0.7,9.4-0.7,10.6c0,0-4.3-2.6-4.7-7c0,0-12.6-3.5-15.1-5.2s-2.3-3.1-1-6s2.8-3.3,7.7-2.2s11,3.7,11,3.7
			S329.2,189.1,332.1,190z"/>
	</g>
	<circle fill="#FFFFFF" stroke="#231F20" stroke-width="0.5" stroke-miterlimit="10" cx="350.1" cy="203.6" r="23"/>
	<g>
		<path fill="#939598" stroke="#231F20" stroke-width="0.5" stroke-miterlimit="10" d="M397.3,223.2c0,0,3.6-5.2,1.1-11.2
			s-8.7-6.1-11.4-6.1c-4.5,0.1-8.4,2-8.4,2l4.8,4.1c0,0,3.9-1.9,5.9,0.3c1.4,1.5,3,3.9-3.3,6.7c0,0-3.5,1.7-7.4,0.2
			s-6.8-4.7-6.8-4.7s-2.2,1.3-2.3,2.7s-1.6,5.5,2.6,9.4c0,0,6.8-5.1,11.8-5.1S397.3,223.2,397.3,223.2z"/>
		<path fill="#BCBEC0" stroke="#231F20" stroke-width="0.5" stroke-miterlimit="10" d="M375,206.6c0,0,3.3,0.7,5.9,3.3
			s8.7,7.1,8.7,7.1s-3.4,2.7-6.3,2.8c-4.1,0.1-6.3-0.9-8.3-2.5s-3.1-2.7-3.1-2.7s-1.5,0.8-2.1,2s-0.6,3.7-0.6,3.7s-3.7-1.1-5.8-1.5
			s-2.9,0.2-4.2-1.2s-4.4-6-1.2-11.7s9.3-4.2,9.3-4.2s2.4,0.2,4.8,2.1S375,206.6,375,206.6z"/>
	</g>
	<circle fill="#FFFFFF" stroke="#231F20" stroke-width="0.5" stroke-miterlimit="10" cx="387" cy="245.1" r="23.9"/>
	<g>
		<path fill="#808285" stroke="#231F20" stroke-width="0.5" stroke-miterlimit="10" d="M361.2,271c0,0,3.3,2.9,3.3,8.2
			c0,5.3,0,9.8,0,9.8l2.7-0.6c0,0,1.5,2.3,3.3,3c1.3,0.5,2.7,0.4,3.8,0.3c1-0.1,2.3-7.5,1.7-7.8c-0.7-0.3-2.3-2.1-1.8-4.2
			s6.1-9.2,8.8-7.2c2.7,2,2.2,3.3,2.2,3.3s3.8,0.2,5.8-1.9s3.6-2.2,1.8-5.5c-1.8-3.3-7.2-5.9-10.8-5.8
			C378.3,262.7,361.2,271,361.2,271z"/>
		<path fill="#808285" stroke="#231F20" stroke-width="0.5" stroke-miterlimit="10" d="M377.8,285c0,0-1.4,2.9-1.1,4.5
			s0.7,2.7,2.8,2.4s6.3-3.3,7.2-4.4c0.9-1.1,2-2,2-2s-4.2,1.2-6.8,0.8C379.4,285.9,377.8,285,377.8,285z"/>
		<path fill="#BCBEC0" stroke="#231F20" stroke-width="0.5" stroke-miterlimit="10" d="M397.8,256.9l0.4,5c0,0,5.6,1.6,5.6,7.4
			c-0.1,4.5-1.7,8.5-7.4,12.4c-2.9,2-6.5,3.8-9.5,4.3c-3,0.4-6.2,0.9-9.9-1.4s-2.9-3.3-2.6-5.5c0.4-2.2,5.9-7.1,7.6-6.8
			c1.7,0.3,2.6,1.9,2.6,1.9s-1.2,0.8-0.9,1.4c0.2,0.4,0.6,0.6,2.1,0.4s9-3,8.3-6.1c-0.6-2.5-1.8-2.1-1.8-2.1s-4.1-4.3-8.4-4.9
			c0,0-1.6-0.6-4.5,0.4l0.9-2c0,0-1.5-3.1-0.3-5.1s4.5-4.4,8.7-4.3C392.7,251.9,396.2,252.7,397.8,256.9z"/>
	</g>
	<circle fill="#FFFFFF" stroke="#231F20" stroke-width="0.5" stroke-miterlimit="10" cx="341" cy="284" r="24.9"/>
	<g>
		<path fill="#808285" stroke="#231F20" stroke-width="0.5" stroke-miterlimit="10" d="M297.1,293.2c0,0,4.5,1.6,3.2,2.9
			s-6.2,4.5-11.2,2.5s-6.1-3-5.8-5.2s4.2-4.1,4.2-4.1l3.4-4.6c0,0-5.1-2.2-12,4.6c0,0-2.8-1-5.4-1s-5.5,1-5.5,1s1.4,1,1.5,7.9
			S269,307,269,307l11-1.5c0,0,6.6,5.1,14.4,4.2c6.6-0.7,15.6-7,15.6-15.4s-7.1-9.4-7.1-9.4L297.1,293.2z"/>
		<path fill="#BCBEC0" stroke="#231F20" stroke-width="0.5" stroke-miterlimit="10" d="M301.2,279.7c2.5,1.2,1.8,5.1,1.8,5.1
			s-6.8,9.1-6.5,9.9s1.5,0.2,2.8-0.6c0,0,1.7,0.4,1.3,1.7c-0.2,0.7-4.7,4-8.1,3.4s-7.7-1.6-8-4.7s3.1-5.3,3.1-5.3s3.5-5.2,5.9-7.8
			C295.7,278.9,298.8,278.6,301.2,279.7z"/>
		<path fill="#BCBEC0" stroke="#231F20" stroke-width="0.5" stroke-miterlimit="10" d="M320.2,277.6c2.5,0.4,6.3,3.3,6.2,10.2
			c-0.1,6.9-2.8,8.7-6,9.1c-3.2,0.5-6.8-0.4-7.5,0.2s-5.4,4.4-5.4,4.4s4.9-7.2,0.6-13.5c0,0-2-2.2-3.5-2.7c-1.6-0.5-0.1-4,1.1-5.4
			s2.4-2.7,3.2-2.5s3.7,2.3,5,2.2C315.4,279.4,318.5,277.4,320.2,277.6z"/>
	</g>
	<circle fill="#FFFFFF" stroke="#231F20" stroke-width="0.5" stroke-miterlimit="10" cx="244.8" cy="299.4" r="25.7"/>
	<g>
		<path fill="#BCBEC0" stroke="#231F20" stroke-width="0.5" stroke-miterlimit="10" d="M255.1,185.4h-15.9c-1.4,0-2.6-1.2-2.6-2.6
			V182c0-1.4,1.2-2.6,2.6-2.6h15.9c1.4,0,2.6,1.2,2.6,2.6v0.8C257.7,184.2,256.6,185.4,255.1,185.4z"/>
		<path fill="#BCBEC0" stroke="#231F20" stroke-width="0.5" stroke-miterlimit="10" d="M248.2,198.3h-2.1c-1.4,0-2.6-1.2-2.6-2.6
			l0,0c0-1.4,1.2-2.6,2.6-2.6h2.1c1.4,0,2.6,1.2,2.6,2.6l0,0C250.9,197.1,249.7,198.3,248.2,198.3z"/>
		<path fill="#BCBEC0" stroke="#231F20" stroke-width="0.5" stroke-miterlimit="10" d="M244.3,196.2h-17.4c-3.1,0-5.7-2.6-5.7-5.7
			V185c0-3.1,2.6-5.7,5.7-5.7h19.2c3.1,0,5.7,2.6,5.7,5.7v3.6c0,1,0.8,1.9,1.9,1.9l5.9,0.1c0.9,0,1.7-0.7,1.7-1.7v-2.4
			c0-0.6-0.5-1.1-1.1-1.1H254c0,0,3.5-0.2,3.5-3.1c0-3.2-3.5-3-3.5-3h7.1h0.1c2.2,0,3.9,1.8,3.9,3.9v7.5l0,0c0,3.2-2.6,5.7-5.8,5.7
			L244.3,196.2z"/>
	</g>
	<path fill="#808285" stroke="#231F20" stroke-width="0.5" stroke-miterlimit="10" d="M223.4,191.8l-14.6,4.2
		c-1.5,0.4-3.2-0.5-3.6-2l-0.4-1.3c-0.4-1.5,0.5-3.2,2-3.6l14.6-4.2c1.5-0.4,3.2,0.5,3.6,2l0.4,1.3
		C225.8,189.7,224.9,191.4,223.4,191.8z"/>
	<path fill="#808285" stroke="#231F20" stroke-width="0.5" stroke-miterlimit="10" d="M280.6,195.9l-20.5-5.7c-1.5-0.4-2.5-2-2-3.6
		l0.4-1.3c0.4-1.5,2-2.5,3.6-2l20.5,5.7c1.5,0.4,2.5,2,2,3.6l-0.4,1.3C283.7,195.5,282.1,196.4,280.6,195.9z"/>
</g>
</svg>
