<?xml version="1.0" encoding="utf-8"?>
<!-- Generator: Adobe Illustrator 18.1.1, SVG Export Plug-In . SVG Version: 6.00 Build 0)  -->
<!DOCTYPE svg PUBLIC "-//W3C//DTD SVG 1.1//EN" "http://www.w3.org/Graphics/SVG/1.1/DTD/svg11.dtd">
<svg version="1.1" id="Layer_1" xmlns="http://www.w3.org/2000/svg" xmlns:xlink="http://www.w3.org/1999/xlink" x="0px" y="0px"
	 viewBox="98.3 144.8 303.4 210.4" enable-background="new 98.3 144.8 303.4 210.4" xml:space="preserve">
<g id="Layer_2">
	<g>
		<path fill="#939598" stroke="#231F20" stroke-miterlimit="10" d="M125.4,243.1c4.8,1.4,8.2,5.8,8.2,11c-0.1,5.9-5,10.9-10.9,11.2
			c-6.5,0.2-11.8-4.9-11.8-11.3c0-5,3.3-9.3,7.8-10.8c0.7-0.2,1.2-0.9,1.2-1.7v-8.6c0-1.1-1-2-2.1-1.8c-11.4,2.1-20,12.6-18.9,24.8
			c1,11.3,10.2,20.3,21.5,21.1c7.9,0.5,15-2.9,19.5-8.5c0.3-0.3,9.9-0.7,10.1-1c2.8-3.8,4.4-8.5,4.4-13.6c0-4.3-1.2-8.3-3.2-11.7
			c-0.6-1-10.6-2-11.4-2.9c-3.4-4.2-8.3-7.2-13.9-8.2c-0.8-0.1-1.5,0.4-1.5,1.2c0,2.5,0,7.5,0,9.6
			C124.6,242.5,124.9,243,125.4,243.1z"/>
		<path fill="#939598" stroke="#231F20" stroke-miterlimit="10" d="M374.6,263.2c-4.8-1.4-8.2-5.8-8.2-11c0.1-5.9,5-10.9,10.9-11.2
			c6.5-0.2,11.8,4.9,11.8,11.3c0,5-3.3,9.3-7.8,10.8c-0.7,0.2-1.2,0.9-1.2,1.7v8.6c0,1.1,1,2,2.1,1.8c11.4-2.1,20-12.6,18.9-24.8
			c-1-11.3-10.2-20.3-21.5-21.1c-7.9-0.5-15,2.9-19.5,8.5c-0.3,0.3-9.9,0.7-10.1,1c-2.8,3.8-4.4,8.5-4.4,13.6
			c0,4.3,1.2,8.3,3.2,11.7c0.6,1,10.6,2,11.4,2.9c3.4,4.2,8.3,7.2,13.9,8.2c0.8,0.1,1.5-0.4,1.5-1.2c0-2.5,0-7.5,0-9.6
			C375.4,263.8,375.1,263.4,374.6,263.2z"/>
		<path fill="#939598" stroke="#231F20" stroke-miterlimit="10" d="M248.9,145.3c-57.8,0-104.7,46.9-104.7,104.7
			S191,354.7,248.9,354.7c57.8,0,104.7-46.9,104.7-104.7S306.7,145.3,248.9,145.3z M292.1,196.9c2.7,13.3,9.3,27.7-6.3,49
			c-15.7,21.3-19.9,29.3-21,39.7c-1.8,17,4.1,31.7,9.3,39.7c2.1,3.2,3.9,5.9,5.4,8c-6.1,2.2-12.4,3.8-19,4.7
			c-5-6.5-15.8-22.4-15.6-37.1c0.2-19.2,8.5-32.5,16.5-43.8s15.8-22.2,15.8-37s-9.5-34.5-17-42.5s-10.7-10.3-9.8-13.2
			c0.3-1,0.8-2,1.3-2.9c6.7,0.2,13.3,1.2,19.6,2.8C276.1,169.7,289.9,186,292.1,196.9z M221.5,333.9c0,0-25.8-26.1-15.6-62.2
			c5.3-18.5,28.9-42.5,28.9-59.8s-6.3-25.7-11-32s-7.7-5.1-6.3-12.9c4.2-1.6,8.5-2.8,12.9-3.8c0.1,0.1,21.9,16.9,22.4,37.9
			S242.2,238,233.2,250c-9,11.9-13.5,20.5-12,35.8s7.6,28.2,15.7,39c4.6,6.2,8.2,10.9,10.5,13.9c-8.9-0.2-17.6-1.6-25.7-4.3
			L221.5,333.9z M160.2,250c0-32.1,17-60.1,42.5-75.7c0,0,9.1,10.3,8.4,24.3c-0.6,12.9-4,19.3-13,29.7c-9,10.3-18.2,23.9-20.3,36
			c-1.3,7.6-0.7,20,3.3,31.7s5.6,10.3,3.7,15.3C169.5,295.4,160.2,273.8,160.2,250z M291.9,327.5c-1.7-5.3-4.5-15.9-3.1-25.9
			c2-14,9.6-26.3,17-37.3c9.7-14.3,15.3-21,15.3-37.3s-8.8-35.9-14.2-44c18.8,16.3,30.6,40.3,30.6,67
			C337.5,283.3,319.1,312.4,291.9,327.5z"/>
	</g>
</g>
</svg>
