<?xml version="1.0" encoding="UTF-8"?>
<svg width="47px" height="86px" viewBox="0 0 47 86" version="1.1" xmlns="http://www.w3.org/2000/svg" xmlns:xlink="http://www.w3.org/1999/xlink">
    <!-- Generator: Sketch 48.1 (47250) - http://www.bohemiancoding.com/sketch -->
    <title>Combined Shape</title>
    <desc>Created with Sketch.</desc>
    <defs></defs>
    <g id="Homepage---2" stroke="none" stroke-width="1" fill="none" fill-rule="evenodd" transform="translate(-1303.000000, -3067.000000)">
        <g id="STONES" transform="translate(90.000000, 2568.000000)" fill="#696969">
            <g id="Group-3" transform="translate(0.000000, 6.000000)">
                <path d="M1213,493 L1260,493 L1260,579 L1213,579 L1213,493 Z M1222.28426,538.709798 L1247.39803,565.490102 C1248.18483,566.329115 1249.50282,566.371441 1250.34183,565.58464 C1250.76166,565.190931 1250.99985,564.641032 1250.99985,564.065472 L1250.99985,560.418911 C1250.99985,559.380552 1250.59607,558.382885 1249.87387,557.63682 L1231.62749,538.787552 C1230.11389,537.223934 1230.12803,534.737146 1231.65933,533.190851 L1249.84203,514.830067 C1250.58376,514.081073 1250.99985,513.06957 1250.99985,512.015457 L1250.99985,508.138598 C1250.99985,506.932275 1250.02193,505.954357 1248.81561,505.954357 C1248.21198,505.954357 1247.63525,506.204162 1247.22234,506.644477 L1222.28426,533.23743 C1220.84127,534.776179 1220.84127,537.17105 1222.28426,538.709798 Z" id="Combined-Shape" transform="translate(1236.500000, 536.000000) scale(-1, 1) translate(-1236.500000, -536.000000) "></path>
            </g>
        </g>
    </g>
</svg>