<?xml version="1.0" encoding="utf-8"?>
<!-- Generator: Adobe Illustrator 18.1.1, SVG Export Plug-In . SVG Version: 6.00 Build 0)  -->
<!DOCTYPE svg PUBLIC "-//W3C//DTD SVG 1.1//EN" "http://www.w3.org/Graphics/SVG/1.1/DTD/svg11.dtd">
<svg version="1.1" id="Layer_1" xmlns="http://www.w3.org/2000/svg" xmlns:xlink="http://www.w3.org/1999/xlink" x="0px" y="0px"
	 viewBox="165.9 114.5 168.2 271.1" enable-background="new 165.9 114.5 168.2 271.1" xml:space="preserve">
<g id="Layer_2">
	<g>
		<g>
			<path fill="#231F20" d="M204.4,156.4c-0.1,0-0.1,0-0.2,0l-19.1-2.6c-0.8-0.1-1.4-0.9-1.3-1.7c0.1-0.8,0.9-1.4,1.7-1.3l19.1,2.6
				c0.8,0.1,1.4,0.9,1.3,1.7C205.8,155.8,205.2,156.4,204.4,156.4z"/>
			<path fill="#939598" stroke="#231F20" stroke-miterlimit="10" d="M215.3,245.9c0.1,5-3.1,9.6-8.1,11.1
				c-5.7,1.7-11.9-1.5-13.9-7.1c-2.2-6.1,1.2-12.7,7.3-14.6c4.8-1.5,9.8,0.4,12.6,4.2c0.5,0.6,1.2,0.9,2,0.7l8.2-2.5
				c1.1-0.3,1.6-1.5,1.1-2.5c-5.4-10.3-17.9-15.3-29.3-10.7c-10.5,4.3-16.4,15.8-13.7,26.8c3.2,13.1,16.7,20.7,29.4,16.7
				c10.9-3.4,17.5-14.1,16.1-25c-0.1-0.8-0.8-1.3-1.6-1c-2.4,0.7-7.2,2.2-9.1,2.8C215.7,244.9,215.3,245.4,215.3,245.9z"/>
			<circle fill="#939598" stroke="#231F20" stroke-miterlimit="10" cx="203.9" cy="377.8" r="7.3"/>
			<circle fill="#BBF1F1" stroke="#231F20" stroke-miterlimit="10" cx="203.9" cy="337.1" r="37.5"/>
			<path fill="#939598" stroke="#231F20" stroke-miterlimit="10" d="M217.1,302.5c0,0-2.6,2.3-13,2.3s-13-2.3-13-2.3s0-9.5,0-12.7
				c0-2.8,5.3-3.9,5.3-3.9l-0.2-34.7c0,0-0.4-9.1,7.9-9.1c7.5,0,7.1,9.1,7.1,9.1l0.1,34.7c0,0,5.8,1.4,5.8,3.8
				S217.1,302.5,217.1,302.5z"/>
			<path fill="#939598" stroke="#231F20" stroke-miterlimit="10" d="M212.2,208.6v-64.8c0,0-1.6-3.8-7.8-3.8c-6.8,0-7.8,4.7-7.8,4.7
				l0.2,64c0,0-3,1.1-3,3.9c0,3.2,0,12.7,0,12.7s2.2,2.3,10.7,2.3s10.7-2.3,10.7-2.3s0-10.5,0-12.9S212.2,208.6,212.2,208.6z"/>
			<circle fill="#BBF1F1" cx="204.4" cy="200.3" r="6"/>
			<circle fill="#BBF1F1" cx="204.4" cy="148.9" r="6"/>
			<circle fill="#BBF1F1" cx="204.4" cy="187.5" r="6"/>
			<circle fill="#BBF1F1" cx="204.4" cy="174.6" r="6"/>
			<circle fill="#BBF1F1" cx="204.4" cy="161.8" r="6"/>
		</g>
		<g>
			<path fill="#231F20" d="M296.6,131.4c-0.1,0-0.1,0-0.2,0l-19.1-2.6c-0.8-0.1-1.4-0.9-1.3-1.7c0.1-0.8,0.9-1.4,1.7-1.3l19.1,2.6
				c0.8,0.1,1.4,0.9,1.3,1.7S297.3,131.4,296.6,131.4z"/>
			<path fill="#939598" stroke="#231F20" stroke-miterlimit="10" d="M307.5,220.9c0.1,5-3.1,9.6-8.1,11.1
				c-5.7,1.7-11.9-1.5-13.9-7.1c-2.2-6.1,1.2-12.7,7.3-14.6c4.8-1.5,9.8,0.4,12.6,4.2c0.5,0.6,1.2,0.9,2,0.7l8.2-2.5
				c1.1-0.3,1.6-1.5,1.1-2.5c-5.4-10.3-17.9-15.3-29.3-10.7c-10.5,4.3-16.4,15.8-13.7,26.8c3.2,13.1,16.7,20.7,29.4,16.7
				c10.9-3.4,17.5-14.1,16.1-25c-0.1-0.8-0.8-1.3-1.6-1c-2.4,0.7-7.2,2.2-9.1,2.8C307.8,219.9,307.5,220.4,307.5,220.9z"/>
			<circle fill="#939598" stroke="#231F20" stroke-miterlimit="10" cx="296.1" cy="352.8" r="7.3"/>
			<circle fill="#BBF1F1" stroke="#231F20" stroke-miterlimit="10" cx="296.1" cy="312.2" r="37.5"/>
			<path fill="#939598" stroke="#231F20" stroke-miterlimit="10" d="M309.2,277.5c0,0-2.6,2.3-13,2.3s-13-2.3-13-2.3s0-9.5,0-12.7
				c0-2.8,5.3-3.9,5.3-3.9l-0.2-34.7c0,0-0.4-9.1,7.9-9.1c7.5,0,7.1,9.1,7.1,9.1l0.1,34.7c0,0,5.8,1.4,5.8,3.8
				S309.2,277.5,309.2,277.5z"/>
			<path fill="#939598" stroke="#231F20" stroke-miterlimit="10" d="M304.4,183.6v-64.8c0,0-1.6-3.8-7.8-3.8c-6.8,0-7.8,4.7-7.8,4.7
				l0.2,64c0,0-3,1.1-3,3.9c0,3.2,0,12.7,0,12.7s2.2,2.3,10.7,2.3s10.7-2.3,10.7-2.3s0-10.5,0-12.9S304.4,183.6,304.4,183.6z"/>
			<circle fill="#BBF1F1" cx="296.6" cy="175.4" r="6"/>
			<circle fill="#BBF1F1" cx="296.6" cy="123.9" r="6"/>
			<circle fill="#BBF1F1" cx="296.6" cy="162.5" r="6"/>
			<circle fill="#BBF1F1" cx="296.6" cy="149.7" r="6"/>
			<circle fill="#BBF1F1" cx="296.6" cy="136.8" r="6"/>
		</g>
	</g>
</g>
</svg>
