<?xml version="1.0" encoding="utf-8"?>
<!-- Generator: Adobe Illustrator 18.1.1, SVG Export Plug-In . SVG Version: 6.00 Build 0)  -->
<!DOCTYPE svg PUBLIC "-//W3C//DTD SVG 1.1//EN" "http://www.w3.org/Graphics/SVG/1.1/DTD/svg11.dtd">
<svg version="1.1" id="Layer_1" xmlns="http://www.w3.org/2000/svg" xmlns:xlink="http://www.w3.org/1999/xlink" x="0px" y="0px"
	 viewBox="261.2 114.9 309.4 499.2" enable-background="new 261.2 114.9 309.4 499.2" xml:space="preserve">
<g id="Layer_2">
	<g>
		<g>
			<path fill="#231F20" d="M327.2,189.4c-0.2-1.5,0.9-3,2.4-3.1l35.2-4.8c1.5-0.2,3,0.9,3.1,2.4c0.2,1.5-0.9,3-2.4,3.1l-35.2,4.8
				c-0.2,0-0.2,0-0.4,0C328.5,191.8,327.4,190.7,327.2,189.4z"/>
			<path fill="#939598" stroke="#231F20" stroke-miterlimit="10" d="M308,354.8c-3.5-1.1-12.4-3.9-16.8-5.2c-1.5-0.6-2.8,0.4-3,1.8
				c-2.6,20.1,9.6,39.8,29.7,46.1c23.4,7.4,48.3-6.6,54.2-30.8c5-20.3-5.9-41.5-25.3-49.4c-21-8.5-44.1,0.7-54,19.7
				c-0.9,1.8,0,4.1,2,4.6l15.1,4.6c1.5,0.4,2.8-0.2,3.7-1.3c5.2-7,14.4-10.5,23.2-7.7c11.3,3.5,17.5,15.7,13.5,26.9
				c-3.7,10.3-15.1,16.2-25.6,13.1c-9.2-2.8-15.1-11.3-14.9-20.5C309.9,355.9,309.1,355,308,354.8z"/>
			<circle fill="#939598" stroke="#231F20" stroke-miterlimit="10" cx="330.9" cy="600.1" r="13.5"/>
			<circle fill="#FFFFFF" stroke="#231F20" stroke-miterlimit="10" cx="330.9" cy="525" r="69.2"/>
			<path fill="#939598" stroke="#231F20" stroke-miterlimit="10" d="M306.5,437.6c0-4.4,10.7-7,10.7-7l0.2-64
				c0,0-0.7-16.8,13.1-16.8c15.3,0,14.6,16.8,14.6,16.8l-0.4,64c0,0,9.8,2,9.8,7.2c0,5.9,0,23.4,0,23.4s-4.8,4.2-24,4.2
				s-24-4.2-24-4.2S306.5,442.1,306.5,437.6z"/>
			<path fill="#939598" stroke="#231F20" stroke-miterlimit="10" d="M310,295.1c0,4.4,0,23.8,0,23.8s4.1,4.2,19.7,4.2
				c15.7,0,19.7-4.2,19.7-4.2s0-17.5,0-23.4c0-5.2-5.5-7.2-5.5-7.2l0.4-118c0,0-1.8-8.7-14.4-8.7c-11.4,0-14.4,7-14.4,7v119.5
				C315.6,288.1,310,290.6,310,295.1z"/>
			<circle fill="#FFFFFF" cx="330" cy="272.7" r="11.1"/>
			<circle fill="#FFFFFF" cx="330" cy="177.9" r="11.1"/>
			<circle fill="#FFFFFF" cx="330" cy="249.1" r="11.1"/>
			<circle fill="#FFFFFF" cx="330" cy="225.3" r="11.1"/>
			<circle fill="#FFFFFF" cx="330" cy="201.7" r="11.1"/>
		</g>
		<g>
			<path fill="#231F20" d="M501.8,145.7c-0.2,0-0.2,0-0.4,0l-35.2-4.8c-1.5-0.2-2.6-1.7-2.4-3.1s1.7-2.6,3.1-2.4l35.2,4.8
				c1.5,0.2,2.6,1.7,2.4,3.1S503.1,145.7,501.8,145.7z"/>
			<path fill="#939598" stroke="#231F20" stroke-miterlimit="10" d="M521.9,310.7c0.2,9.2-5.7,17.7-14.9,20.5
				c-10.5,3.1-21.9-2.8-25.6-13.1c-4.1-11.3,2.2-23.4,13.5-26.9c8.9-2.8,18.1,0.7,23.2,7.7c0.9,1.1,2.2,1.7,3.7,1.3l15.1-4.6
				c2-0.6,3-2.8,2-4.6c-10-19-33-28.2-54-19.7c-19.4,7.9-30.2,29.1-25.3,49.4c5.9,24.2,30.8,38.2,54.2,30.8
				c20.1-6.3,32.3-26,29.7-46.1c-0.2-1.5-1.5-2.4-3-1.8c-4.4,1.3-13.3,4.1-16.8,5.2C522.5,308.9,521.9,309.8,521.9,310.7z"/>
			<circle fill="#939598" stroke="#231F20" stroke-miterlimit="10" cx="500.9" cy="554" r="13.5"/>
			<circle fill="#FFFFFF" stroke="#231F20" stroke-miterlimit="10" cx="500.9" cy="479.1" r="69.2"/>
			<path fill="#939598" stroke="#231F20" stroke-miterlimit="10" d="M525.1,415.1c0,0-4.8,4.2-24,4.2s-24-4.2-24-4.2s0-17.5,0-23.4
				c0-5.2,9.8-7.2,9.8-7.2l-0.4-64c0,0-0.7-16.8,14.6-16.8c13.8,0,13.1,16.8,13.1,16.8l0.2,64c0,0,10.7,2.6,10.7,7
				S525.1,415.1,525.1,415.1z"/>
			<path fill="#939598" stroke="#231F20" stroke-miterlimit="10" d="M516.2,241.9V122.4c0,0-3-7-14.4-7c-12.5,0-14.4,8.7-14.4,8.7
				l0.4,118c0,0-5.5,2-5.5,7.2c0,5.9,0,23.4,0,23.4s4.1,4.2,19.7,4.2c15.7,0,19.7-4.2,19.7-4.2s0-19.4,0-23.8
				C521.8,244.5,516.2,241.9,516.2,241.9z"/>
			<circle fill="#FFFFFF" cx="501.8" cy="226.8" r="11.1"/>
			<circle fill="#FFFFFF" cx="501.8" cy="131.8" r="11.1"/>
			<circle fill="#FFFFFF" cx="501.8" cy="203" r="11.1"/>
			<circle fill="#FFFFFF" cx="501.8" cy="179.4" r="11.1"/>
			<circle fill="#FFFFFF" cx="501.8" cy="155.6" r="11.1"/>
		</g>
	</g>
</g>
</svg>
