<?xml version="1.0" encoding="utf-8"?>
<!-- Generator: Adobe Illustrator 18.1.1, SVG Export Plug-In . SVG Version: 6.00 Build 0)  -->
<!DOCTYPE svg PUBLIC "-//W3C//DTD SVG 1.1//EN" "http://www.w3.org/Graphics/SVG/1.1/DTD/svg11.dtd">
<svg version="1.1" id="Layer_1" xmlns="http://www.w3.org/2000/svg" xmlns:xlink="http://www.w3.org/1999/xlink" x="0px" y="0px"
	 viewBox="220 162.3 60 175.4" enable-background="new 220 162.3 60 175.4" xml:space="preserve">
<g id="Layer_2">
	<g>
		<circle fill="#939598" stroke="#231F20" stroke-miterlimit="10" cx="250" cy="329.9" r="7.3"/>
		<path fill="#BBF1F1" stroke="#231F20" stroke-miterlimit="10" d="M279.5,270.8c0,31-6.8,56.1-29.5,56.1s-29.5-25.1-29.5-56.1
			s8.8-56.1,29.5-56.1C272,214.7,279.5,239.8,279.5,270.8z"/>
		<path fill="#939598" stroke="#231F20" stroke-miterlimit="10" d="M263,219.6c0,0-2.6,2.3-13,2.3s-13-2.3-13-2.3V203h26V219.6z"/>
		<path fill="#939598" stroke="#231F20" stroke-miterlimit="10" d="M261,189.4c-1.4,4.8-5.8,8.2-11,8.2c-5.9-0.1-10.9-5-11.2-10.9
			c-0.2-6.5,4.9-11.8,11.3-11.8c5,0,9.3,3.3,10.8,7.8c0.2,0.7,0.9,1.2,1.7,1.2h8.6c1.1,0,2-1,1.8-2.1c-2.1-11.4-12.6-20-24.8-18.9
			c-11.3,1-20.3,10.2-21.1,21.5c-0.9,13.5,9.8,24.7,23.1,24.7c11.4,0,20.9-8.3,22.8-19.1c0.1-0.8-0.4-1.5-1.2-1.5
			c-2.5,0-7.5,0-9.6,0C261.7,188.6,261.2,188.9,261,189.4z"/>
	</g>
</g>
</svg>
