<?xml version="1.0" encoding="utf-8"?>
<!-- Generator: Adobe Illustrator 18.1.1, SVG Export Plug-In . SVG Version: 6.00 Build 0)  -->
<!DOCTYPE svg PUBLIC "-//W3C//DTD SVG 1.1//EN" "http://www.w3.org/Graphics/SVG/1.1/DTD/svg11.dtd">
<svg version="1.1" id="Layer_1" xmlns="http://www.w3.org/2000/svg" xmlns:xlink="http://www.w3.org/1999/xlink" x="0px" y="0px"
	 viewBox="0 0 40 40" enable-background="new 0 0 40 40" xml:space="preserve">
<g>
	<path fill="#010101" d="M17.4,7c-5.4,0-9.8,4.4-9.8,9.8c0,5.4,4.4,9.8,9.8,9.8c5.4,0,9.8-4.4,9.8-9.8C27.2,11.4,22.8,7,17.4,7z"/>
	<path fill="#010101" d="M0,0v40h40V0H0z M35.4,36c-0.3,0.3-0.8,0.5-1.2,0.5c-0.5,0-0.9-0.2-1.3-0.5L25,27.7
		c-2.2,1.6-4.9,2.4-7.6,2.4c-7.3,0-13.3-6-13.3-13.3s6-13.3,13.3-13.3c7.3,0,13.3,6,13.3,13.3c0,3.1-1.1,6.2-3.1,8.6l7.9,8.2
		C36.1,34.2,36.1,35.3,35.4,36z"/>
</g>
</svg>
